<svg width="50" height="24" viewBox="0 0 50 24" fill="none" xmlns="http://www.w3.org/2000/svg">
<path d="M49.8752 17.6916C50.0825 17.333 49.9597 16.8742 49.601 16.667L43.7565 13.2901C43.3978 13.0829 42.9391 13.2057 42.7318 13.5643C42.5246 13.923 42.6474 14.3817 43.006 14.5889L48.2012 17.5906L45.1996 22.7858C44.9923 23.1444 45.1151 23.6032 45.4737 23.8104C45.8324 24.0176 46.2911 23.8949 46.4984 23.5362L49.8752 17.6916ZM0.55239 1.64652C4.85995 10.4339 20.6378 25.7431 49.4197 18.0409L49.0319 16.5919C21.0139 24.0897 5.92505 9.19887 1.89927 0.986288L0.55239 1.64652Z" fill="#F75B11"/>
</svg>
