<svg xmlns="http://www.w3.org/2000/svg" width="98" height="13" fill="none" xmlns:v="https://vecta.io/nano"><path d="M3.415 10.496c.499-.123 1.278-.184 2.336-.184a9.39 9.39 0 0 1 1.003.089l.939.089a1.23 1.23 0 0 0 .489-.121c.178-.081.366-.121.565-.121.144 0 .284.074.419.222s.203.271.203.381c0 .343-.184.599-.552.768s-.719.254-1.066.254c-.444 0-.753-.025-.927-.076-.601-.169-1.39-.254-2.368-.254-.465 0-.897.038-1.295.114s-.681.152-.863.241-.347.224-.508.406c-.19.22-.44.33-.749.33-.478 0-.717-.201-.717-.603 0-.355.121-.69.362-1.003s.732-.688 1.46-1.111c.961-.554 1.71-1.052 2.247-1.492s.975-.914 1.314-1.409.508-.882.508-1.149c0-.309-.121-.573-.362-.793s-.54-.336-.908-.336c-.165 0-.476.135-.933.406s-.823.567-1.111.901c-.195.224-.499.336-.914.336-.161 0-.307-.104-.438-.311s-.19-.391-.19-.552c0-.182.165-.381.495-.597l.375-.254c.707-.508 1.257-.848 1.65-1.022s.916-.26 1.555-.26c.571 0 1.117.25 1.638.749s.781 1.014.781 1.555c0 .724-.417 1.549-1.25 2.476s-1.892 1.703-3.187 2.33zm13.654 1.13c-.051.436-.294.654-.73.654-.554 0-.832-.4-.832-1.2 0-1.295.07-2.402.209-3.32a13.85 13.85 0 0 0 .165-2.107.57.57 0 0 1 .159-.413c.106-.114.254-.171.444-.171.635 0 .952.385.952 1.155 0 .25-.112.887-.336 1.911-.135.609-.203 1.052-.203 1.327 1.21-2.658 2.302-3.986 3.275-3.986.394 0 .709.157.946.47s.366 1.007.375 2.082c.004.982.055 1.473.152 1.473.076 0 .341-.476.794-1.428.503-1.054.933-1.75 1.288-2.088s.736-.508 1.13-.508c.47 0 .81.203 1.022.609s.36 1.083.444 2.044c.064.762.148 1.337.254 1.727s.296.648.559.774c.212.102.317.254.317.457 0 .182-.121.366-.362.552s-.487.273-.736.273c-.432 0-.77-.212-1.016-.635s-.404-1.282-.489-2.564l-.152-1.225c-.051-.203-.129-.305-.235-.305-.093 0-.229.152-.406.457s-.485.901-.92 1.803c-.385.813-.717 1.38-.997 1.701s-.571.482-.889.482c-.245 0-.493-.106-.743-.317s-.379-.98-.4-2.304c-.021-1.181-.097-1.771-.229-1.771-.178 0-.605.525-1.282 1.574s-1.187 1.989-1.53 2.818zm17.323-2.844c-.283.99-.823 1.826-1.619 2.507s-1.583 1.016-2.374 1.016a1.98 1.98 0 0 1-1.549-.686c-.406-.461-.609-1.026-.609-1.695 0-1.092.372-2.167 1.117-3.225s1.648-1.587 2.71-1.587c.724 0 1.31.269 1.758.806s.673 1.17.673 1.911a4.16 4.16 0 0 1-.108.946v.006zm-3.301-2.006c-.296.262-.586.681-.87 1.257s-.425 1.153-.425 1.733c0 .351.064.641.19.87s.303.343.514.343c.525 0 1.071-.311 1.638-.933s.851-1.32.851-2.095c0-.436-.093-.793-.279-1.073a.86.86 0 0 0-.768-.425c-.313 0-.595.108-.844.324h-.006zm9.959 4.297c-.203-.381-.351-1.092-.444-2.133-.093-1.083-.3-1.625-.622-1.625-.305 0-.832.565-1.581 1.695s-1.21 1.957-1.384 2.495a.82.82 0 0 1-.216.4c-.102.106-.203.159-.305.159-.643 0-.965-.294-.965-.882 0-.199.064-.652.19-1.358.165-.914.248-2.031.248-3.352 0-.199.087-.41.26-.635s.358-.343.552-.343c.245 0 .434.061.565.184s.197.449.197.978c0 .402-.121 1.181-.362 2.336.918-2.15 1.942-3.225 3.072-3.225.982 0 1.557.772 1.727 2.317.169 1.574.364 2.361.584 2.361a1.08 1.08 0 0 0 .336-.064c.152-.051.273-.076.362-.076.203 0 .305.119.305.355 0 .216-.14.447-.419.692s-.631.362-1.054.362c-.491 0-.842-.214-1.054-.641h.006zm5.852-4.227c-.038 0-.159.472-.362 1.416l-.298 1.714c0 .347.036.59.108.73a.39.39 0 0 0 .368.203 1.93 1.93 0 0 0 .679-.121c.22-.085.508-.271.863-.559.22-.182.406-.273.559-.273.123 0 .22.036.292.108s.114.148.114.241c0 .372-.3.796-.901 1.27s-1.236.705-1.904.705c-.559 0-.986-.165-1.282-.495s-.438-.804-.438-1.422c0-.571.214-1.712.641-3.421l-.565.044h-.133c-.195 0-.394-.063-.597-.19s-.298-.33-.298-.609c0-.355.201-.533.603-.533l1.358-.051c.178-.512.366-1.183.565-2.012.118-.516.387-.774.806-.774.233 0 .415.072.546.216a.67.67 0 0 1 .197.47c0 .068-.18.722-.539 1.961l2.215-.178c.224 0 .372.034.444.102s.108.188.108.375c0 .377-.319.616-.959.717l-2.19.368zm4.919 2.228c.702-1.316 1.308-2.211 1.815-2.685s1.028-.717 1.549-.717a1.18 1.18 0 0 1 .895.375c.241.245.417.889.527 1.93.046.495.106.895.178 1.2s.152.576.241.813.216.453.381.66c.127.165.19.324.19.476s-.074.292-.222.419-.311.19-.502.19c-.377 0-.711-.205-1.003-.616s-.466-.978-.521-1.701c-.068-.884-.142-1.449-.222-1.695s-.205-.368-.387-.368c-.245 0-.724.491-1.435 1.473l-1.53 2.349c-.195.444-.345.732-.451.863s-.237.197-.394.197c-.258 0-.468-.063-.628-.191s-.241-.307-.241-.54c0-.114.057-.472.171-1.073l1.06-7.255c.068-.618.197-1.043.387-1.276s.372-.355.533-.355a.78.78 0 0 1 .584.26c.165.174.248.415.248.724 0 .474-.057 1.02-.171 1.638l-.641 2.958-.413 1.949zm9.661 1.314c-.017-.229-.381-.508-1.092-.838-.872-.419-1.428-.779-1.669-1.079s-.362-.635-.362-.99c0-.749.419-1.403 1.257-1.961s1.627-.844 2.355-.844c.715 0 1.073.311 1.073.933 0 .165-.082.313-.247.444s-.298.197-.413.197c-.047 0-.129-.03-.248-.089s-.209-.089-.273-.089c-.377 0-.791.127-1.244.381s-.679.55-.679.889c0 .165.08.326.241.482s.489.345.984.578c.732.347 1.215.66 1.447.939s.349.588.349.927c0 .618-.419 1.134-1.257 1.549s-1.771.616-2.812.616c-.766 0-1.149-.277-1.149-.832 0-.203.08-.377.241-.521a.79.79 0 0 1 .54-.216c.08 0 .205.03.375.089s.326.095.47.095a4.47 4.47 0 0 0 1.251-.191c.436-.127.724-.284.863-.47zm9.452-1.619l-.108 1.136-.051 1.079c0 .322.03.694.089 1.117-.042.148-.148.275-.317.381a.99.99 0 0 1-.533.159c-.58 0-.87-.368-.87-1.104 0-.326.091-1.104.273-2.336l.19-1.974c0-.025-.025-.055-.076-.089-.292-.186-.438-.364-.438-.533 0-.22.163-.459.489-.717.157-.123.252-.264.286-.425l.159-.774c.229-1.35.582-2.308 1.06-2.875s1.094-.857 1.834-.857c.432 0 .796.142 1.092.425s.451.626.451 1.041c0 .372-.087.76-.26 1.162s-.394.597-.673.597c-.123 0-.226-.038-.311-.114a.41.41 0 0 1-.127-.311l.038-.552c0-.66-.138-.99-.412-.99-.343 0-.664.432-.965 1.295s-.444 1.591-.444 2.196c0 .063.04.095.121.095l1.853-.013c.364-.008.546.131.546.419 0 .279-.22.487-.66.622s-.895.197-1.377.197l-.635.083-.222 1.657v.006zm4.672.083l.108-.203c.512-1.028 1.062-1.862 1.65-2.501s1.17-.965 1.733-.965c.432 0 .783.118 1.054.355s.413.518.413.844a.97.97 0 0 1-.14.527c-.093.144-.222.216-.387.216-.262 0-.501-.108-.717-.324-.152-.14-.273-.209-.362-.209-.317 0-.849.493-1.593 1.479a6.81 6.81 0 0 0-1.346 3.326c-.046.355-.15.603-.311.743s-.379.216-.654.216c-.292 0-.499-.165-.622-.495s-.184-.878-.184-1.631l.025-1.25.146-1.815.044-.438c.038-.415.08-.698.127-.851s.165-.303.343-.438a.95.95 0 0 1 .59-.203c.228 0 .402.066.52.197a.63.63 0 0 1 .178.432c0 .199-.095.611-.286 1.238a5.37 5.37 0 0 0-.171.774l-.159.978zm10.759.965c0 .44-.37.967-1.111 1.581s-1.576.914-2.507.914c-.715 0-1.278-.224-1.688-.673s-.616-1.081-.616-1.885c0-1.185.419-2.296 1.257-3.333s1.733-1.555 2.685-1.555c.474 0 .855.15 1.143.451s.432.658.432 1.073c0 .736-.353 1.439-1.06 2.107s-1.612 1.124-2.717 1.377c-.127.03-.19.106-.19.229 0 .203.089.398.267.584s.423.273.724.273c.851 0 1.695-.438 2.533-1.314.161-.169.317-.254.47-.254.254 0 .381.142.381.425zm-4.259-1.124a3.83 3.83 0 0 0 1.765-.857c.512-.436.768-.832.768-1.187 0-.14-.04-.256-.121-.349a.36.36 0 0 0-.298-.146c-.368 0-.776.271-1.225.813s-.745 1.117-.889 1.727zm11.001 1.124c0 .44-.37.967-1.111 1.581s-1.576.914-2.507.914c-.715 0-1.278-.224-1.689-.673s-.616-1.081-.616-1.885c0-1.185.419-2.296 1.257-3.333s1.733-1.555 2.685-1.555c.474 0 .855.15 1.142.451s.432.658.432 1.073c0 .736-.353 1.439-1.06 2.107s-1.612 1.124-2.717 1.377c-.127.03-.19.106-.19.229 0 .203.089.398.267.584s.423.273.724.273c.851 0 1.695-.438 2.533-1.314.161-.169.317-.254.47-.254.254 0 .381.142.381.425zm-4.259-1.124a3.83 3.83 0 0 0 1.765-.857c.512-.436.768-.832.768-1.187 0-.14-.04-.256-.121-.349a.36.36 0 0 0-.298-.146c-.368 0-.776.271-1.225.813s-.745 1.117-.889 1.727zm6.9.267c-.423 0-.751-.087-.984-.26-.068-.825-.008-1.674.178-2.545.207-.944.311-1.65.311-2.12a7.3 7.3 0 0 1 .064-.527c.047-.309.182-.544.406-.705s.415-.241.571-.241c.169 0 .33.063.483.19s.235.258.235.406c0 .118-.087.559-.26 1.32l-.508 2.095c-.178.664-.271 1.195-.279 1.593-.008.3-.08.565-.216.793zm-.901 2.92c-.465 0-.698-.258-.698-.774 0-.195.095-.419.286-.673s.396-.381.616-.381c.144 0 .324.07.54.209s.324.258.324.355l-.064.394c-.038.279-.176.495-.413.647s-.434.222-.59.222z" fill="#f75b11"/></svg>